<?xml version="1.0" encoding="utf-8"?>
<!-- Generator: Adobe Illustrator 20.1.0, SVG Export Plug-In . SVG Version: 6.00 Build 0)  -->
<svg version="1.1" id="Layer_1" xmlns="http://www.w3.org/2000/svg" xmlns:xlink="http://www.w3.org/1999/xlink" x="0px" y="0px"
	 viewBox="0 0 24 24" style="enable-background:new 0 0 24 24;" xml:space="preserve">
<path d="M9,13.7L9,13.7c3.7,0,7,1.5,7,3.5V19l0,0l0,0l0,0l0,0H2l0,0l0,0l0,0l0,0v-1.8C2,15,5.8,13.7,9,13.7z M5.5,8.5
	C5.5,6.6,7.1,5,9,5s3.5,1.6,3.5,3.5S10.9,12,9,12S5.5,10.4,5.5,8.5z M16,6l2,2l-1,1l-2-2L16,6z M12,8h2l0,0H12L12,8z M17,9l3-3l1,1
	l-2,2l2,2l-1,1L17,9z M12,11h2l0,0H12L12,11z M15,11l2-2l1,1l-2,2L15,11z"/>
</svg>
