<?xml version="1.0" encoding="utf-8"?>
<!-- Generator: Adobe Illustrator 24.1.2, SVG Export Plug-In . SVG Version: 6.00 Build 0)  -->
<svg version="1.1" id="Layer_1" xmlns="http://www.w3.org/2000/svg" xmlns:xlink="http://www.w3.org/1999/xlink" x="0px" y="0px"
	 viewBox="0 0 24 24" style="enable-background:new 0 0 24 24;" xml:space="preserve">
<path d="M20,2H4C2.9,2,2,2.9,2,4v18l4-4h14c1.1,0,2-0.9,2-2V4C22,2.9,21.1,2,20,2z M15.5,13.8l-2.5-2h-1.5v2c0,0.3-0.2,0.5-0.5,0.5
	h-1c-0.3,0-0.5-0.2-0.5-0.5v-2H9c-0.5,0-1-0.5-1-1v-2c0-0.5,0.5-1,1-1h4l2.5-2V13.8z M16.5,11.8v-4c0.8,0.4,1.2,1.2,1.2,2
	S17.2,11.4,16.5,11.8z"/>
</svg>
