<?xml version="1.0" encoding="utf-8"?>
<!-- Generator: Adobe Illustrator 20.1.0, SVG Export Plug-In . SVG Version: 6.00 Build 0)  -->
<svg version="1.1" id="Layer_1" xmlns="http://www.w3.org/2000/svg" xmlns:xlink="http://www.w3.org/1999/xlink" x="0px" y="0px"
	 viewBox="0 0 24 24" style="enable-background:new 0 0 24 24;" xml:space="preserve">
<path d="M6.6,10.8c1.4,2.8,3.8,5.1,6.6,6.6l2.2-2.2c0.3-0.3,0.7-0.4,1-0.2c1.1,0.4,2.3,0.6,3.6,0.6c0.6,0,1,0.4,1,1V20
	c0,0.6-0.4,1-1,1C10.6,21,3,13.4,3,4c0-0.6,0.4-1,1-1h3.5c0.6,0,1,0.4,1,1c0,1.2,0.2,2.4,0.6,3.6c0.1,0.3,0,0.7-0.2,1L6.6,10.8z
	 M15,3L15,3v1.5l0,0V3z M15,3h5l-1.5,1.5H15V3z M13,10l1,1l0,0L13,10L13,10z M13,10l7-7h1v1l-7,7l-0.5-0.5L13,10z M19.5,9L19.5,9H21
	l0,0H19.5z M19.5,9V5.5L21,4v5H19.5z"/>
</svg>
