<?xml version="1.0" encoding="utf-8"?>
<!-- Generator: Adobe Illustrator 20.1.0, SVG Export Plug-In . SVG Version: 6.00 Build 0)  -->
<svg version="1.1" id="Layer_1" xmlns="http://www.w3.org/2000/svg" xmlns:xlink="http://www.w3.org/1999/xlink" x="0px" y="0px"
	 viewBox="0 0 24 24" style="enable-background:new 0 0 24 24;" xml:space="preserve">
<path d="M16.5,9.7c-2.9-1-6.1-0.9-9.1,0v3c0,0.4-0.2,0.8-0.6,0.8c-1,0.5-2,1.2-2.9,2.1c-0.4,0.4-1,0.4-1.4,0l-2.3-2.3
	c-0.4-0.4-0.4-1,0-1.4c6.5-6.5,16.9-6.5,23.4,0c0.4,0.4,0.4,1,0,1.4l-2.4,2.4c-0.4,0.4-1,0.4-1.4,0c-0.8-0.8-1.8-1.5-2.9-2.1
	c-0.3-0.1-0.5-0.5-0.6-0.8L16.5,9.7z M12,5h2l0,0H12L12,5z M15,5h6l0,0H15L15,5z M12,8h2l0,0H12L12,8z M15,8h6l0,0H15L15,8z M12,11
	h2l0,0H12L12,11z M15,11h6l0,0H15L15,11z"/>
</svg>
