<?xml version="1.0" encoding="utf-8"?>
<!-- Generator: Adobe Illustrator 20.1.0, SVG Export Plug-In . SVG Version: 6.00 Build 0)  -->
<svg version="1.1" id="Layer_1" xmlns="http://www.w3.org/2000/svg" xmlns:xlink="http://www.w3.org/1999/xlink" x="0px" y="0px"
	 viewBox="0 0 24 24" style="enable-background:new 0 0 24 24;" xml:space="preserve">
<path d="M16.5,14.7c-2.9-1-6.1-0.9-9.1,0v3c0,0.4-0.2,0.8-0.6,0.8c-1,0.5-2,1.2-2.9,2.1c-0.4,0.4-1,0.4-1.4,0l-2.3-2.3
	c-0.4-0.4-0.4-1,0-1.4c6.5-6.5,16.9-6.5,23.4,0c0.4,0.4,0.4,1,0,1.4l-2.4,2.4c-0.4,0.4-1,0.4-1.4,0c-0.8-0.8-1.8-1.5-2.9-2.1
	c-0.3-0.1-0.5-0.5-0.6-0.8L16.5,14.7z M6,3h5v1.5H7.5L6,3z M12,9l6-6l1,1l-6,6L12,9z M12,9L12,9l1,1l0,0L12,9z M6,3l6,6l1,1l-1,1
	L5,4V3H6z M5,4l1.5,1.5V9H5V4z M13,10l6-6l0,0L13,10L13,10z"/>
</svg>
