<?xml version="1.0" encoding="utf-8"?>
<!-- Generator: Adobe Illustrator 20.1.0, SVG Export Plug-In . SVG Version: 6.00 Build 0)  -->
<svg version="1.1" id="Layer_1" xmlns="http://www.w3.org/2000/svg" xmlns:xlink="http://www.w3.org/1999/xlink" x="0px" y="0px"
	 viewBox="0 0 24 24" style="enable-background:new 0 0 24 24;" xml:space="preserve">
<path d="M6.6,10.8c1.4,2.8,3.8,5.1,6.6,6.6l2.2-2.2c0.3-0.3,0.7-0.4,1-0.2c1.1,0.4,2.3,0.6,3.6,0.6c0.6,0,1,0.4,1,1V20
	c0,0.6-0.4,1-1,1C10.6,21,3,13.4,3,4c0-0.6,0.4-1,1-1h3.5c0.6,0,1,0.4,1,1c0,1.2,0.2,2.4,0.6,3.6c0.1,0.3,0,0.7-0.2,1L6.6,10.8z
	 M14.5,5L14.5,5H13l0,0H14.5z M14.5,5v3.5L13,10V5H14.5z M13,11v-1l0,0V11L13,11z M13,10l7-7l0.5,0.5L21,4l-7,7h-1V10z M13,11h1l0,0
	H13L13,11z M15.5,9.5H19V11h-5L15.5,9.5z"/>
</svg>
