<?xml version="1.0" encoding="utf-8"?>
<!-- Generator: Adobe Illustrator 20.1.0, SVG Export Plug-In . SVG Version: 6.00 Build 0)  -->
<svg version="1.1" id="Layer_1" xmlns="http://www.w3.org/2000/svg" xmlns:xlink="http://www.w3.org/1999/xlink" x="0px" y="0px"
	 viewBox="0 0 24 24" style="enable-background:new 0 0 24 24;" xml:space="preserve">
<path d="M6.6,10.8c1.4,2.8,3.8,5.1,6.6,6.6l2.2-2.2c0.3-0.3,0.7-0.4,1-0.2c1.1,0.4,2.3,0.6,3.6,0.6c0.6,0,1,0.4,1,1V20
	c0,0.6-0.4,1-1,1C10.6,21,3,13.4,3,4c0-0.6,0.4-1,1-1h3.5c0.6,0,1,0.4,1,1c0,1.2,0.2,2.4,0.6,3.6c0.1,0.3,0,0.7-0.2,1L6.6,10.8z
	 M12,5h2l0,0H12L12,5z M15,5h6l0,0H15L15,5z M14,4h4v4h-4V4z M18,4V1l5,5l-5,5V8V6V4z M12,11h2l0,0H12L12,11z M15,11h6l0,0H15L15,11
	z"/>
</svg>
