<?xml version="1.0" encoding="utf-8"?>
<!-- Generator: Adobe Illustrator 24.1.2, SVG Export Plug-In . SVG Version: 6.00 Build 0)  -->
<svg version="1.1" id="Layer_1" xmlns="http://www.w3.org/2000/svg" xmlns:xlink="http://www.w3.org/1999/xlink" x="0px" y="0px"
	 viewBox="0 0 24 24" style="enable-background:new 0 0 24 24;" xml:space="preserve">
<path d="M6.6,10.8c1.4,2.8,3.8,5.1,6.6,6.6l2.2-2.2c0.3-0.3,0.7-0.4,1-0.2c1.1,0.4,2.3,0.6,3.6,0.6c0.6,0,1,0.4,1,1V20
	c0,0.6-0.4,1-1,1C10.6,21,3,13.4,3,4c0-0.6,0.4-1,1-1h3.5c0.6,0,1,0.4,1,1c0,1.2,0.2,2.4,0.6,3.6c0.1,0.3,0,0.7-0.2,1L6.6,10.8z
	 M20,7.5h-0.9c0,0.3-0.1,0.7-0.2,1.1l0.6,0.6C19.9,8.6,20,8.1,20,7.5z M18,7.6C18,7.5,18,7.5,18,7.6V4.5C18,3.6,17.4,3,16.5,3
	S15,3.6,15,4.5v0.1L18,7.6z M16.8,8.9l0.9,0.8c-0.4,0.2-0.8,0.2-1.1,0.2c-1.4,0-2.7-1.1-2.7-2.6H13c0,1.7,1.3,3.1,3,3.3v1.7h1v-1.6
	c0.4-0.1,0.9-0.2,1.2-0.4l2.1,2.1l0.6-0.6l-3.5-3.5L16.8,8.9z M17.5,8.4l-4.9-4.9L12,4.2l3,3v0.3C15,8.3,15.6,9,16.5,9
	c0.1,0,0.2,0,0.3-0.1L17.5,8.4z"/>
</svg>
