<svg xmlns="http://www.w3.org/2000/svg" width="80" height="80" viewBox="0 0 80 80" xmlns:xlink="http://www.w3.org/1999/xlink">
  <defs>
    <rect id="a" width="80" height="80" rx="40"/>
    <mask id="c" width="80" height="80" x="0" y="0" fill="white">
      <use xlink:href="#a"/>
    </mask>
    <path id="b" d="M21.0010677,56 L19.0241618,54.0554439 L19,17.9767394 L21.1563793,16 L39.9119563,16 L42,18.0013192 L21.0010677,17.9767394 L21.0010677,56 Z M51.0049157,43.051373 L53,43.0329896 L53,27.0734683 L45.9899499,27.0156353 L45.9899499,20 L25.0133955,20.0630512 L23,22.0749219 L23,57.8806759 L25.1209303,60 L43.9718002,60 L43.9718002,58.0936904 L26.0111702,58.0936904 L24.9220794,57.0054244 L24.9220794,22.8872086 L25.9250101,22.0044672 L44.0362816,22.0044672 L44.0362816,29.0109167 L51.0458951,29.0109167 L51.0049157,43.051373 Z M47,26 L47,21 L52,26 L47,26 Z"/>
    <mask id="d" width="34" height="44" x="0" y="0" fill="white">
      <use xlink:href="#b"/>
    </mask>
  </defs>
  <g fill="none" fill-rule="evenodd">
    <use stroke="#000000" stroke-width="4" mask="url(#c)" xlink:href="#a"/>
    <rect width="48" height="48" x="16" y="16" fill="#000000" opacity="0"/>
    <use stroke="#000000" stroke-width="4" mask="url(#d)" xlink:href="#b"/>
    <path fill="#000000" d="M29.0213778 50L41.0213778 50 41.0213778 52 29.0213778 52 29.0213778 50zM29.0213778 44L45.0213778 44 45.0213778 46 29.0213778 46 29.0213778 44zM36 34.0106889C39.2307692 34.0106889 43 35.2106889 43 40.0106889L29 40.0106889C29 35.2106889 32.7692308 34.0106889 36 34.0106889zM36.0053445 27C37.9383361 27 39.5053445 28.5670083 39.5053445 30.5 39.5053445 32.4329917 37.9383361 34 36.0053445 34 34.0723528 34 32.5053445 32.4329917 32.5053445 30.5 32.5053445 28.5670083 34.0723528 27 36.0053445 27zM56.5 56L55.7 56 55.4 55.7C56.4 54.6 57 53.1 57 51.5 57 47.9 54.1 45 50.5 45 46.9 45 44 47.9 44 51.5 44 55.1 46.9 58 50.5 58 52.1 58 53.6 57.4 54.7 56.4L55 56.7 55 57.5 60 62.5 61.5 61 56.5 56 56.5 56zM50.5 56C48 56 46 54 46 51.5 46 49 48 47 50.5 47 53 47 55 49 55 51.5 55 54 53 56 50.5 56L50.5 56z"/>
  </g>
</svg>
