<?xml version="1.0" encoding="UTF-8"?>
<svg width="80px" height="80px" viewBox="0 0 80 80" version="1.1" xmlns="http://www.w3.org/2000/svg" xmlns:xlink="http://www.w3.org/1999/xlink">
    <!-- Generator: Sketch 41.2 (35397) - http://www.bohemiancoding.com/sketch -->
    <title>ig-app-details</title>
    <desc>Created with Sketch.</desc>
    <defs>
        <rect id="path-1" x="0" y="0" width="80" height="80" rx="40"></rect>
        <mask id="mask-2" maskContentUnits="userSpaceOnUse" maskUnits="objectBoundingBox" x="0" y="0" width="80" height="80" fill="white">
            <use xlink:href="#path-1"></use>
        </mask>
        <path d="M53.0004092,58.9517668 L52.9530462,60 L54.9715822,57.9752834 L55,27.0734683 L47.9899499,27.0156353 L47.9899499,20 L27.0133955,20.0630512 L25,22.0749219 L25,57.8806759 L27.1209303,60 L52.9825389,60 L52.9983937,57.0054244 L52.0159873,57.9769011 L28.0111702,58.0936904 L26.9220794,57.0054244 L26.9220794,22.8872086 L27.9250101,22.0044672 L46.0362816,22.0044672 L46.0362816,29.0109167 L53.0458951,29.0109167 L53.0004092,58.9517668 Z M49,26 L49,21 L54,26 L49,26 Z" id="path-3"></path>
        <mask id="mask-4" maskContentUnits="userSpaceOnUse" maskUnits="objectBoundingBox" x="0" y="0" width="30" height="40" fill="white">
            <use xlink:href="#path-3"></use>
        </mask>
    </defs>
    <g id="Infographics" stroke="none" stroke-width="1" fill="none" fill-rule="evenodd">
        <g id="Infographics--FA-Start" transform="translate(-130.000000, -837.000000)">
            <g id="ig-app-details" transform="translate(130.000000, 837.000000)">
                <use id="Rectangle-145" stroke="#000000" mask="url(#mask-2)" stroke-width="4" xlink:href="#path-1"></use>
                <rect id="bound" fill="#000000" opacity="0" x="16" y="16" width="48" height="48"></rect>
                <use id="Combined-Shape" stroke="#000000" mask="url(#mask-4)" stroke-width="4" xlink:href="#path-3"></use>
                <path d="M31,49 L49,49 L49,51 L31,51 L31,49 Z M31,43 L49,43 L49,45 L31,45 L31,43 Z M37.9786222,33.0106889 C41.2093914,33.0106889 44.9786222,34.2106889 44.9786222,39.0106889 L30.9786222,39.0106889 C30.9786222,34.2106889 34.7478529,33.0106889 37.9786222,33.0106889 Z M37.9839666,26 C39.9169583,26 41.4839666,27.5670083 41.4839666,29.5 C41.4839666,31.4329917 39.9169583,33 37.9839666,33 C36.050975,33 34.4839666,31.4329917 34.4839666,29.5 C34.4839666,27.5670083 36.050975,26 37.9839666,26 Z" id="Combined-Shape" fill="#000000"></path>
            </g>
        </g>
    </g>
</svg>