<?xml version="1.0" encoding="UTF-8" standalone="no"?>
<svg width="42px" height="42px" viewBox="0 0 42 42" version="1.1" xmlns="http://www.w3.org/2000/svg" xmlns:xlink="http://www.w3.org/1999/xlink">
    <!-- Generator: Sketch 41.1 (35376) - http://www.bohemiancoding.com/sketch -->
    <title>closed-party</title>
    <desc>Created with Sketch.</desc>
    <defs></defs>
    <g id="cards-V3" stroke="none" stroke-width="1" fill="none" fill-rule="evenodd">
        <g id="Kanban-cards---Disabled-Variations" transform="translate(-4575.000000, -1058.000000)">
            <g id="Medium-card,-complex-Copy-7" transform="translate(4560.000000, 1043.000000)">
                <g id="description" transform="translate(16.000000, 16.000000)">
                    <g id="avatar-with-ratings">
                        <g id="closed-party">
                            <circle id="Oval-53-Copy" stroke="#FB7070" cx="20" cy="20" r="20"></circle>
                            <circle id="Oval-53-Copy-3" stroke="#FB7070" opacity="0.64" cx="20" cy="20" r="18"></circle>
                            <path d="M9.59423828,20.8686523 C9.54443334,21.5571323 9.2902855,22.0991191 8.83178711,22.4946289 C8.37328872,22.8901387 7.76904672,23.0878906 7.01904297,23.0878906 C6.19872637,23.0878906 5.55346915,22.8117703 5.08325195,22.2595215 C4.61303476,21.7072726 4.37792969,20.9492236 4.37792969,19.9853516 L4.37792969,19.5942383 C4.37792969,18.9790008 4.48632704,18.4370141 4.703125,17.9682617 C4.91992296,17.4995094 5.22973431,17.1398938 5.63256836,16.8894043 C6.0354024,16.6389148 6.5034153,16.5136719 7.03662109,16.5136719 C7.77490604,16.5136719 8.36962665,16.7114238 8.82080078,17.1069336 C9.27197491,17.5024434 9.53271449,18.0576136 9.60302734,18.7724609 L8.28466797,18.7724609 C8.25244125,18.3593729 8.13745216,18.0598154 7.93969727,17.8737793 C7.74194237,17.6877432 7.44091999,17.5947266 7.03662109,17.5947266 C6.59716577,17.5947266 6.26831164,17.7521957 6.05004883,18.0671387 C5.83178602,18.3820817 5.71972659,18.8706022 5.71386719,19.5327148 L5.71386719,20.0161133 C5.71386719,20.707523 5.81860247,21.212889 6.02807617,21.5322266 C6.23754988,21.8515641 6.56786884,22.0112305 7.01904297,22.0112305 C7.42627157,22.0112305 7.73022361,21.9182138 7.9309082,21.7321777 C8.1315928,21.5461416 8.24658188,21.2583027 8.27587891,20.8686523 L9.59423828,20.8686523 Z M11.5683203,21.940918 L14.3676367,21.940918 L14.3676367,23 L10.2499609,23 L10.2499609,16.6015625 L11.5683203,16.6015625 L11.5683203,21.940918 Z M19.8881055,19.9458008 C19.8881055,20.5756867 19.7767785,21.1279273 19.5541211,21.6025391 C19.3314637,22.0771508 19.0128634,22.4433581 18.5983106,22.7011719 C18.1837577,22.9589857 17.7084207,23.0878906 17.1722852,23.0878906 C16.6420091,23.0878906 16.1688693,22.9604505 15.7528516,22.7055664 C15.3368339,22.4506823 15.0145715,22.0866723 14.7860547,21.6135254 C14.5575379,21.1403785 14.4418164,20.5961945 14.4388867,19.980957 L14.4388867,19.6645508 C14.4388867,19.0346648 14.552411,18.480227 14.7794629,18.0012207 C15.0065148,17.5222144 15.3273124,17.1545423 15.7418652,16.8981934 C16.1564181,16.6418444 16.6302903,16.5136719 17.1634961,16.5136719 C17.6967019,16.5136719 18.1705741,16.6418444 18.585127,16.8981934 C18.9996798,17.1545423 19.3204774,17.5222144 19.5475293,18.0012207 C19.7745812,18.480227 19.8881055,19.0332 19.8881055,19.6601562 L19.8881055,19.9458008 Z M18.552168,19.6557617 C18.552168,18.9848599 18.432052,18.4750994 18.1918164,18.1264648 C17.9515808,17.7778303 17.6088108,17.6035156 17.1634961,17.6035156 C16.7211111,17.6035156 16.3798059,17.775633 16.1395703,18.119873 C15.8993347,18.464113 15.7777539,18.9687467 15.7748242,19.6337891 L15.7748242,19.9458008 C15.7748242,20.5991244 15.8949402,21.1059552 16.1351758,21.4663086 C16.3754114,21.826662 16.721111,22.0068359 17.1722852,22.0068359 C17.6146702,22.0068359 17.9545105,21.8332537 18.1918164,21.486084 C18.4291223,21.1389143 18.5492383,20.6328158 18.552168,19.9677734 L18.552168,19.6557617 Z M23.9539844,21.3212891 C23.9539844,21.0722644 23.8660946,20.8811042 23.6903125,20.7478027 C23.5145304,20.6145013 23.1981273,20.4738777 22.7410938,20.3259277 C22.2840602,20.1779778 21.9222474,20.0322273 21.6556446,19.8886719 C20.9290784,19.4960918 20.5658008,18.9672885 20.5658008,18.3022461 C20.5658008,17.9565412 20.6632119,17.6481947 20.8580371,17.3771973 C21.0528623,17.1061998 21.3326447,16.894532 21.6973926,16.7421875 C22.0621405,16.589843 22.4715602,16.5136719 22.9256641,16.5136719 C23.3826976,16.5136719 23.7899201,16.5964347 24.1473438,16.7619629 C24.5047674,16.9274911 24.7823525,17.1611313 24.9801074,17.4628906 C25.1778623,17.7646499 25.2767383,18.10742 25.2767383,18.4912109 L23.9583789,18.4912109 C23.9583789,18.1982407 23.8660947,17.9704598 23.6815235,17.8078613 C23.4969522,17.6452629 23.2376775,17.5639648 22.9036914,17.5639648 C22.5814242,17.5639648 22.3309384,17.6320794 22.1522266,17.7683105 C21.9735148,17.9045417 21.8841602,18.0839833 21.8841602,18.3066406 C21.8841602,18.5146495 21.9888955,18.6889641 22.1983692,18.8295898 C22.4078429,18.9702155 22.7161894,19.1020502 23.123418,19.2250977 C23.8734217,19.4506847 24.419803,19.7304671 24.7625781,20.0644531 C25.1053533,20.3984392 25.2767383,20.8144506 25.2767383,21.3125 C25.2767383,21.8662137 25.0672677,22.3005355 24.6483203,22.6154785 C24.2293729,22.9304215 23.6654137,23.0878906 22.9564258,23.0878906 C22.4642358,23.0878906 22.0159981,22.9978036 21.6116992,22.817627 C21.2074003,22.6374503 20.8990538,22.3906266 20.6866504,22.0771484 C20.474247,21.7636703 20.3680469,21.4003927 20.3680469,20.9873047 L21.6908008,20.9873047 C21.6908008,21.6933629 22.1126716,22.0463867 22.9564258,22.0463867 C23.2699039,22.0463867 23.5145304,21.9826667 23.6903125,21.8552246 C23.8660946,21.7277826 23.9539844,21.5498058 23.9539844,21.3212891 Z M29.8084375,20.2270508 L27.2771875,20.2270508 L27.2771875,21.940918 L30.2478907,21.940918 L30.2478907,23 L25.9588282,23 L25.9588282,16.6015625 L30.2391016,16.6015625 L30.2391016,17.6694336 L27.2771875,17.6694336 L27.2771875,19.1943359 L29.8084375,19.1943359 L29.8084375,20.2270508 Z M30.8113282,23 L30.8113282,16.6015625 L32.7800782,16.6015625 C33.342581,16.6015625 33.8457498,16.7282702 34.2895996,16.9816895 C34.7334495,17.2351087 35.0798816,17.5954566 35.3289063,18.0627441 C35.577931,18.5300316 35.7024414,19.0610322 35.7024414,19.6557617 L35.7024414,19.9501953 C35.7024414,20.5449248 35.5801282,21.0737282 35.3354981,21.5366211 C35.090868,21.999514 34.7459007,22.3583972 34.300586,22.6132812 C33.8552712,22.8681653 33.3528349,22.9970703 32.7932618,23 L30.8113282,23 Z M32.1296875,17.6694336 L32.1296875,21.940918 L32.7668946,21.940918 C33.2825221,21.940918 33.6765612,21.7724626 33.9490235,21.4355469 C34.2214858,21.0986311 34.3606445,20.6167024 34.3665039,19.9897461 L34.3665039,19.6513672 C34.3665039,19.0009733 34.2317397,18.5080583 33.9622071,18.1726074 C33.6926745,17.8371565 33.2986354,17.6694336 32.7800782,17.6694336 L32.1296875,17.6694336 Z" id="CLOSED-Copy" fill="#FB7070" transform="translate(20.040186, 19.800781) rotate(-15.000000) translate(-20.040186, -19.800781) "></path>
                        </g>
                    </g>
                </g>
            </g>
        </g>
    </g>
</svg>