<?xml version="1.0" encoding="UTF-8"?>
<svg width="80px" height="80px" viewBox="0 0 80 80" version="1.1" xmlns="http://www.w3.org/2000/svg" xmlns:xlink="http://www.w3.org/1999/xlink">
    <!-- Generator: sketchtool 42 (36781) - http://www.bohemiancoding.com/sketch -->
    <title>EFDA6754-5D08-45D0-8734-4EF6E0D24DB4</title>
    <desc>Created with sketchtool.</desc>
    <defs></defs>
    <g id="V5" stroke="none" stroke-width="1" fill="none" fill-rule="evenodd" opacity="0.26">
        <g id="Roommate-Finder---Signed-out-state-(m-window)" transform="translate(-589.000000, -1503.000000)" fill="#000000">
            <g id="background-+-Card1-+-Group-+-Card1-Copy-+-Card1-Copy-2-+-action-list-1-+-Card1-Copy-3-+-apbar-desktop-+-Group-3-Mask-Copy" transform="translate(0.000000, 910.000000)">
                <path d="M589,633 C589,610.90861 606.903753,593 629,593 C651.09139,593 669,610.903753 669,633 C669,655.09139 651.096247,673 629,673 C606.90861,673 589,655.096247 589,633 Z M591,633 C591,653.991435 608.01318,671 629,671 C649.991435,671 667,653.98682 667,633 C667,612.008565 649.98682,595 629,595 C608.008565,595 591,612.01318 591,633 Z M641,654 C642.1,654 643,653.1 643,652 C643,650.9 642.1,650 641,650 C639.9,650 639,650.9 639,652 C639,653.1 639.9,654 641,654 L641,654 Z M647,645 L646,645 L646,643 C646,640.2 643.8,638 641,638 C638.2,638 636,640.2 636,643 L637.9,643 C637.9,641.3 639.3,639.9 641,639.9 C642.7,639.9 644.1,641.3 644.1,643 L644.1,645 L635,645 C633.9,645 633,645.9 633,647 L633,657 C633,658.1 633.9,659 635,659 L647,659 C648.1,659 649,658.1 649,657 L649,647 C649,645.9 648.1,645 647,645 L647,645 Z M647,657 L635,657 L635,647 L647,647 L647,657 Z M610.001068,649 L608,647 L608,611 C608,611 608.034057,610.107082 608.614014,609.575439 C609.19397,609.043797 610,609 610,609 L628.911956,609 L631,611.001319 L611,611.000064 C611,611.000064 610.47445,610.968559 610.223999,611.218994 C609.973548,611.469429 610,612 610,612 L610.001068,649 Z M640.004916,636.051373 L640.045895,622.010917 L633.036282,622.010917 L633.036282,615.004467 L615,615.004467 C615,615.004467 614.606262,614.915222 614.268982,615.283081 C613.931702,615.65094 614,616 614,616 L614,650 C614,650 613.939041,650.44235 614.199158,650.723694 C614.459274,651.005038 615,651 615,651 L629.9718,651.09369 L629.9718,653 L614,653 C614,653 612.994736,653.008347 612.501221,652.514832 C612.007706,652.021317 612,651 612,651 L612,615.074922 C612,615.074922 612.076225,614.167892 612.591492,613.653015 C613.106759,613.138139 614.013396,613.063051 614.013396,613.063051 L634.98995,613 L634.98995,620.015635 L642,620.073468 L642,636.03299 L640.004916,636.051373 Z M636,619 L636,614 L641,619 L636,619 Z M618.021378,643 L630,643 L630,645 L618.021378,645 L618.021378,643 Z M618.021378,637 L634,637 L634,639 L618.021378,639 L618.021378,637 Z M625,627.010689 C628.230769,627.010689 632,628.210689 632,633.010689 L618,633.010689 C618,628.210689 621.769231,627.010689 625,627.010689 Z M625.5,620 C627.432992,620 629,621.567008 629,623.5 C629,625.432992 627.432992,627 625.5,627 C623.567008,627 622,625.432992 622,623.5 C622,621.567008 623.567008,620 625.5,620 Z" id="ig-app-review"></path>
            </g>
        </g>
    </g>
</svg>