<svg xmlns="http://www.w3.org/2000/svg" viewBox="0 0 578.42 118.03"><defs><style>.a{fill:#faa819;}.b{fill:#ca8813;}.c{fill:#c56728;}.d{fill:#84c441;}.e{fill:#717430;}.f{fill:#77582c;}.g{fill:#da93c0;}.h{fill:#827b39;}.i{fill:#6c502c;}.j{fill:#6d412a;}.k{fill:#3a9fd9;}.l{fill:#6c753f;}.m{fill:#5b4b2e;}.n{fill:#3a492f;}.o{fill:#586bb2;}.p{fill:#6c5639;}.q{fill:#583829;}.r{fill:#426743;}.s{fill:#4b5344;}.t{fill:#3a4431;}.u{fill:#3e392d;}.v{fill:#61c5f0;}.w{fill:#231f20;}</style></defs><title>Artboard 1</title><path class="a" d="M36.79,29.89A59.44,59.44,0,0,1,61.24,2.82,59.44,59.44,0,0,1,85.73,30.08,59,59,0,0,0,61.4,32.55l-.18-.07h0A59,59,0,0,0,36.79,29.89Z"/><path class="b" d="M31.49,54a59,59,0,0,0-10,22.4A59.44,59.44,0,0,1,3.3,44.76,59.44,59.44,0,0,1,36.79,29.89a59,59,0,0,0-5.17,23.9l-.12.16Z"/><path class="c" d="M31.62,53.79a59,59,0,0,1,5.17-23.9,59,59,0,0,1,24.4,2.59h0l.18.07-.31.1A29.45,29.45,0,0,0,46.5,43.13,29.46,29.46,0,0,0,31.62,53.79Z"/><path class="d" d="M61,105.29a59.44,59.44,0,0,1-35.69,7.53,59.44,59.44,0,0,1-3.79-36.45,59,59,0,0,0,21.13,12.3l.11.16,0,0A59,59,0,0,0,61,105.29Z"/><path class="e" d="M42.62,88.67a59,59,0,0,1-21.13-12.3,59,59,0,0,1,10-22.4l0,0,.12-.16c0,.11,0,.22,0,.33a29.45,29.45,0,0,0,5.46,17.12A29.46,29.46,0,0,0,42.62,88.67Z"/><path class="f" d="M37.08,71.23a29.45,29.45,0,0,1-5.46-17.12c0-.11,0-.22,0-.33A29.46,29.46,0,0,1,46.5,43.13a29.71,29.71,0,0,0-5.6,13.78A29.7,29.7,0,0,0,37.08,71.23Z"/><path class="g" d="M79.41,88.93a59,59,0,0,0,21.26-12.25,59.44,59.44,0,0,1-3.87,36.26A59.44,59.44,0,0,1,61,105.29,59,59,0,0,0,79.2,89l.19-.06Z"/><path class="h" d="M61,105.29A59,59,0,0,1,42.75,88.86l0,0-.11-.16.31.11a29.45,29.45,0,0,0,18,.1A29.46,29.46,0,0,0,79.2,89,59,59,0,0,1,61,105.29Z"/><path class="i" d="M60.9,88.88a29.45,29.45,0,0,1-18-.1l-.31-.11a29.46,29.46,0,0,1-5.54-17.44,29.71,29.71,0,0,0,11.37,9.59A29.7,29.7,0,0,0,60.9,88.88Z"/><path class="j" d="M37.08,71.23a29.7,29.7,0,0,1,3.81-14.33,29.62,29.62,0,0,0,7.56,23.92A29.71,29.71,0,0,1,37.08,71.23Z"/><path class="k" d="M100.67,76.68a59,59,0,0,0-9.86-22.37c0-.07,0-.13,0-.2v0a59,59,0,0,0-5.08-24A59.44,59.44,0,0,1,119,45,59.44,59.44,0,0,1,100.67,76.68Z"/><path class="l" d="M85.73,30.08a59,59,0,0,1,5.08,24v0c0,.07,0,.13,0,.2L90.62,54A29.45,29.45,0,0,0,76.14,43.4,29.46,29.46,0,0,0,61.4,32.55,59,59,0,0,1,85.73,30.08Z"/><path class="m" d="M46.5,43.13a29.45,29.45,0,0,1,14.6-10.49l.31-.1A29.46,29.46,0,0,1,76.14,43.4,29.71,29.71,0,0,0,61.3,42.33,29.7,29.7,0,0,0,46.5,43.13Z"/><path class="n" d="M40.89,56.91a29.71,29.71,0,0,1,5.6-13.78,29.7,29.7,0,0,1,14.81-.8A29.62,29.62,0,0,0,40.89,56.91Z"/><path class="o" d="M90.81,54.31a59,59,0,0,1,9.86,22.37A59,59,0,0,1,79.41,88.93h0L79.2,89l.2-.26A29.45,29.45,0,0,0,85,71.67,29.46,29.46,0,0,0,90.81,54.31Z"/><path class="p" d="M90.62,54l.19.27A29.46,29.46,0,0,1,85,71.67a29.71,29.71,0,0,0-3.56-14.44A29.7,29.7,0,0,0,76.14,43.4,29.45,29.45,0,0,1,90.62,54Z"/><path class="q" d="M76.14,43.4a29.7,29.7,0,0,1,5.34,13.83A29.62,29.62,0,0,0,61.3,42.33,29.71,29.71,0,0,1,76.14,43.4Z"/><path class="r" d="M85,71.67a29.45,29.45,0,0,1-5.64,17.06l-.2.26a29.46,29.46,0,0,1-18.3-.12A29.71,29.71,0,0,0,73.53,81,29.7,29.7,0,0,0,85,71.67Z"/><path class="s" d="M85,71.67A29.7,29.7,0,0,1,73.53,81a29.62,29.62,0,0,0,7.94-23.79A29.71,29.71,0,0,1,85,71.67Z"/><path class="t" d="M60.9,88.88a29.7,29.7,0,0,1-12.45-8.05,29.62,29.62,0,0,0,25.08.2A29.71,29.71,0,0,1,60.9,88.88Z"/><path class="u" d="M81.47,57.23A29.62,29.62,0,0,1,73.53,81a29.62,29.62,0,0,1-25.08-.2,29.62,29.62,0,0,1-7.56-23.92A29.62,29.62,0,0,1,61.3,42.33,29.62,29.62,0,0,1,81.47,57.23Z"/><path class="v" d="M76.93,63.72A15.69,15.69,0,1,1,61.24,48,15.69,15.69,0,0,1,76.93,63.72Z"/><path class="w" d="M175.39,31a24.61,24.61,0,0,0-24.58,24.58V92.76q0,.62,0,1.27l0,19.57h2.68V92.86c.2-4.18,1.47-7.41,3.78-9.6a12.88,12.88,0,0,1,8.54-3.2l9.6.06a24.58,24.58,0,1,0,0-49.16Zm0,46.49-9.29-.06h-.38a15.53,15.53,0,0,0-10.3,3.93,13.2,13.2,0,0,0-1.95,2.32V55.54a21.91,21.91,0,1,1,21.91,21.9Zm49.73-6.9a11.93,11.93,0,0,0-4.56-3.48,15.93,15.93,0,0,0-6.42-1.2,18.92,18.92,0,0,0-8.8,2,27.76,27.76,0,0,0-7.24,5.63l-.5.52.7.7c.72.72,1.31.73,2.27-.24q.51-.51,1.34-1.25t2-1.62A14.7,14.7,0,0,1,206.48,70a18.74,18.74,0,0,1,3.41-1.23,16.93,16.93,0,0,1,4.26-.5,12.6,12.6,0,0,1,5.18,1A9.6,9.6,0,0,1,223,72.13a13.12,13.12,0,0,1,2.23,4.61,23.71,23.71,0,0,1,.78,6.33V88.3a90.7,90.7,0,0,0-13,1.2,39.78,39.78,0,0,0-9.66,2.82,14.86,14.86,0,0,0-5.86,4.46,10,10,0,0,0-2,6,13,13,0,0,0,1.14,5.69,11.2,11.2,0,0,0,3,3.84,11.71,11.71,0,0,0,4.06,2.17,15.08,15.08,0,0,0,4.4.67,24.28,24.28,0,0,0,5.85-.66,22.38,22.38,0,0,0,4.94-1.86,23.58,23.58,0,0,0,4.34-2.93c.94-.79,1.88-1.66,2.82-2.58l.22,5.78a1.36,1.36,0,0,0,1.4,1.49h.93V83.07a28,28,0,0,0-.83-7.07A14.61,14.61,0,0,0,225.13,70.55ZM226,90.73v13.21c-1.12,1.14-2.28,2.24-3.46,3.27a25,25,0,0,1-4,2.87,21.16,21.16,0,0,1-4.71,2,20.84,20.84,0,0,1-5.71.73,11.74,11.74,0,0,1-3.71-.6,9.17,9.17,0,0,1-3.15-1.8,9,9,0,0,1-2.23-3.06,10.78,10.78,0,0,1-.85-4.49c0-3.66,2.22-6.43,6.78-8.48S216.59,91.08,226,90.73Zm39-23,.68.32-.72,1.36c-.15.26-.54.82-2,.18-.35-.15-.8-.31-1.35-.49a16.85,16.85,0,0,0-2-.5,15.53,15.53,0,0,0-2.82-.22,12.48,12.48,0,0,0-9.49,3.83c-2.44,2.6-4.41,6.34-5.85,11.14v31.08h-2.61V66.63h1a1.36,1.36,0,0,1,1.4,1.5l.1,8.69c.35-.81.72-1.58,1.12-2.31a18.54,18.54,0,0,1,3.6-4.7,14.34,14.34,0,0,1,4.76-2.94,17,17,0,0,1,6-1,18.5,18.5,0,0,1,4.38.49A20.28,20.28,0,0,1,265,67.74ZM281.5,89.32l25.82,25.12h-2.67a2.81,2.81,0,0,1-.9-.13,2.52,2.52,0,0,1-.95-.65l-23.26-22.6a6.15,6.15,0,0,0-.66-.57,2.16,2.16,0,0,0-.56-.3,4,4,0,0,0-.75-.18,7.91,7.91,0,0,0-1.1-.06h-1.15v24.49h-2.61V44.88h2.61V87.62h1.44a5.36,5.36,0,0,0,.87-.08,1.93,1.93,0,0,0,.89-.57l22.05-19.4a3.58,3.58,0,0,1,.91-.67,2.81,2.81,0,0,1,1.28-.27h2.82L280.65,88.45l-.14.12h0A8.24,8.24,0,0,1,281.5,89.32Zm88.85-13a26,26,0,0,1,1,7.69v30.43h-2.61V84c0-5.13-1.1-9.09-3.26-11.76s-5.15-4-9.14-4a13.54,13.54,0,0,0-5.09,1A12.45,12.45,0,0,0,347,72.21a14.35,14.35,0,0,0-3,4.88A19.34,19.34,0,0,0,342.84,84v30.43h-2.61V84a27.44,27.44,0,0,0-.76-6.74,14.53,14.53,0,0,0-2.2-4.93,9.49,9.49,0,0,0-3.53-3,11,11,0,0,0-4.88-1,12.65,12.65,0,0,0-7.8,2.71,24.55,24.55,0,0,0-6.31,7.53v35.91h-2.61V66.63h1a1.36,1.36,0,0,1,1.4,1.5l.1,6.27a23.3,23.3,0,0,1,5.44-5.59A14.91,14.91,0,0,1,329,65.87c3.92,0,7,1.24,9.27,3.69a15.8,15.8,0,0,1,3.47,6.85,16.78,16.78,0,0,1,1.21-2.74,15.34,15.34,0,0,1,3.55-4.37,14.25,14.25,0,0,1,4.66-2.59,16.78,16.78,0,0,1,11.47.35,12.71,12.71,0,0,1,4.77,3.54A16.45,16.45,0,0,1,370.35,76.32Zm41.45-5.05a16,16,0,0,0-5.77-4,18.6,18.6,0,0,0-7.09-1.36,21.58,21.58,0,0,0-8.84,1.74,18.68,18.68,0,0,0-6.62,4.9A21.66,21.66,0,0,0,379.37,80,31,31,0,0,0,378,89.59a36.17,36.17,0,0,0,1.45,10.62,23.21,23.21,0,0,0,4.18,8,18.16,18.16,0,0,0,6.68,5.05,21.71,21.71,0,0,0,8.86,1.74,24.93,24.93,0,0,0,5.41-.58,28.91,28.91,0,0,0,4.83-1.51,22.67,22.67,0,0,0,3.86-2,11.65,11.65,0,0,0,2.55-2.21l.42-.52-.66-.65a1.25,1.25,0,0,0-.9-.41c-.36,0-.75.17-1.74,1a16.33,16.33,0,0,1-2.71,1.8,23.45,23.45,0,0,1-4.53,1.83,22.81,22.81,0,0,1-6.53.82,18.91,18.91,0,0,1-7.62-1.5,15.85,15.85,0,0,1-5.83-4.36,20.37,20.37,0,0,1-3.76-7.17,33.82,33.82,0,0,1-1.34-10V88.31c0-.18,0-.36,0-.54h35.08a1.41,1.41,0,0,0,.83-.26,1.14,1.14,0,0,0,.47-1,26.2,26.2,0,0,0-1.37-8.78A19,19,0,0,0,411.8,71.27Zm-31,14.18a25.64,25.64,0,0,1,1.72-6.59,17.62,17.62,0,0,1,3.7-5.65,16.28,16.28,0,0,1,5.5-3.62,19.15,19.15,0,0,1,7.22-1.29,16,16,0,0,1,6.15,1.17A13.94,13.94,0,0,1,410,72.88a15.85,15.85,0,0,1,3.27,5.58,22.58,22.58,0,0,1,1.18,7Zm70.46-17.71.68.32-.72,1.37c-.16.26-.54.81-2,.17-.34-.15-.8-.31-1.35-.49a16.93,16.93,0,0,0-2-.5,15.55,15.55,0,0,0-2.82-.22,12.48,12.48,0,0,0-9.49,3.83c-2.45,2.6-4.42,6.34-5.85,11.14v31.08h-2.61V66.63h1a1.36,1.36,0,0,1,1.4,1.5l.09,8.69q.52-1.22,1.12-2.31a18.5,18.5,0,0,1,3.6-4.7A14.36,14.36,0,0,1,437,66.87a17,17,0,0,1,6-1,18.53,18.53,0,0,1,4.38.49A20.32,20.32,0,0,1,451.27,67.74ZM490,107.52l.62.61-.35.51a10.39,10.39,0,0,1-2.24,2.27,17.77,17.77,0,0,1-3.41,2,23.81,23.81,0,0,1-4.39,1.49A22.43,22.43,0,0,1,475,115a20.44,20.44,0,0,1-8.39-1.67,17.52,17.52,0,0,1-6.39-4.86,22.36,22.36,0,0,1-4-7.7,34.56,34.56,0,0,1-1.4-10.24,33.92,33.92,0,0,1,1.4-10,22.48,22.48,0,0,1,4.11-7.8,18.65,18.65,0,0,1,6.62-5,21.05,21.05,0,0,1,8.84-1.79,20.45,20.45,0,0,1,7.78,1.4,20.15,20.15,0,0,1,5.86,3.61l.58.52-.83.84a1.26,1.26,0,0,1-.9.41c-.41,0-.84-.24-1.55-.87a12,12,0,0,0-2.13-1.39,20.14,20.14,0,0,0-3.6-1.43,18.13,18.13,0,0,0-5.2-.65A18.61,18.61,0,0,0,468,69.84a15.89,15.89,0,0,0-5.74,4.38,20.14,20.14,0,0,0-3.62,7,32.09,32.09,0,0,0-1.27,9.34,32.54,32.54,0,0,0,1.27,9.5,19.79,19.79,0,0,0,3.58,6.89,15.16,15.16,0,0,0,5.52,4.22,17.57,17.57,0,0,0,7.24,1.45A18.33,18.33,0,0,0,485,110a14,14,0,0,0,2.37-1.79c.79-.79,1.23-1.07,1.66-1.07A1.25,1.25,0,0,1,490,107.52Zm36.92-36.25a16,16,0,0,0-5.77-4A18.6,18.6,0,0,0,514,65.87a21.58,21.58,0,0,0-8.84,1.74,18.7,18.7,0,0,0-6.62,4.9A21.67,21.67,0,0,0,494.46,80a31,31,0,0,0-1.41,9.57,36.09,36.09,0,0,0,1.45,10.62,23.21,23.21,0,0,0,4.18,8,18.13,18.13,0,0,0,6.68,5.05,21.73,21.73,0,0,0,8.86,1.74,24.93,24.93,0,0,0,5.41-.58,29,29,0,0,0,4.83-1.51,22.62,22.62,0,0,0,3.86-2,11.64,11.64,0,0,0,2.55-2.21l.42-.52-.66-.66a1.27,1.27,0,0,0-.9-.41c-.36,0-.76.17-1.74,1a16.38,16.38,0,0,1-2.71,1.8,23.47,23.47,0,0,1-4.54,1.83,22.78,22.78,0,0,1-6.52.82,18.92,18.92,0,0,1-7.63-1.5,15.83,15.83,0,0,1-5.83-4.36A20.31,20.31,0,0,1,497,99.56a33.82,33.82,0,0,1-1.34-10V88.31c0-.18,0-.36,0-.54h35.08a1.4,1.4,0,0,0,.83-.25,1.14,1.14,0,0,0,.48-1,26.2,26.2,0,0,0-1.37-8.78A19,19,0,0,0,526.89,71.27Zm-31,14.18a25.6,25.6,0,0,1,1.72-6.59,17.62,17.62,0,0,1,3.7-5.65,16.23,16.23,0,0,1,5.5-3.62A19.16,19.16,0,0,1,514,68.3a16,16,0,0,1,6.15,1.17,14,14,0,0,1,4.92,3.41,15.94,15.94,0,0,1,3.27,5.59,22.61,22.61,0,0,1,1.18,7ZM572.3,44.88V72.59a17.05,17.05,0,0,0-5.39-4.6,19.62,19.62,0,0,0-9.28-2.12,20.75,20.75,0,0,0-9.19,1.94,19.06,19.06,0,0,0-6.62,5.31,23.09,23.09,0,0,0-4,7.89,34.6,34.6,0,0,0-1.31,9.62c0,8.18,1.66,14.34,4.92,18.32S549.6,115,555.83,115a18.69,18.69,0,0,0,10.06-2.88,25,25,0,0,0,6.46-5.89l.14,6.71a1.36,1.36,0,0,0,1.4,1.49h1V44.88Zm-16.47,67.71c-5.44,0-9.62-1.78-12.4-5.3s-4.26-9.17-4.26-16.66a32.88,32.88,0,0,1,1.15-8.88,20.85,20.85,0,0,1,3.45-7.08A16.1,16.1,0,0,1,549.49,70a18.29,18.29,0,0,1,8.14-1.7,17.24,17.24,0,0,1,8.26,1.92,18.26,18.26,0,0,1,6.42,6.44v25.62a25.09,25.09,0,0,1-7.3,7.54A16.54,16.54,0,0,1,555.83,112.59Z"/></svg>