<svg xmlns="http://www.w3.org/2000/svg" viewBox="0 0 800 800"><defs><style>.a{fill:#f9a719;}.b{fill:#c98813;}.c{fill:#c46728;}.d{fill:#83c341;}.e{fill:#717430;}.f{fill:#77582c;}.g{fill:#d992bf;}.h{fill:#817b39;}.i{fill:#6c502c;}.j{fill:#6d412a;}.k{fill:#3a9ed8;}.l{fill:#6c753f;}.m{fill:#5b4b2e;}.n{fill:#3a492f;}.o{fill:#586bb1;}.p{fill:#6c5639;}.q{fill:#583829;}.r{fill:#426743;}.s{fill:#4b5344;}.t{fill:#3a4431;}.u{fill:#3e392d;}.v{fill:#61c4ef;}</style></defs><title>Artboard 1</title><path class="a" d="M400.18,223.13l.21,0c.43.14.84.31,1.27.45a407.31,407.31,0,0,1,168.18-17.07A411.07,411.07,0,0,0,400.52,18a411.08,411.08,0,0,0-169,187.23A407.39,407.39,0,0,1,400.18,223.13Z"/><path class="b" d="M195,371.63c.27-.37.55-.71.82-1.07a408.1,408.1,0,0,1,35.75-165.33A410.74,410.74,0,0,0,0,308.11,411.25,411.25,0,0,0,125.72,526.8a408.08,408.08,0,0,1,69.13-155Z"/><path class="c" d="M298.6,296.84a203.61,203.61,0,0,1,100.91-72.55c.72-.23,1.43-.43,2.15-.66-.43-.14-.84-.31-1.27-.45l-.21,0a407.39,407.39,0,0,0-168.66-17.9,408.1,408.1,0,0,0-35.75,165.33A203.65,203.65,0,0,1,298.6,296.84Z"/><path class="d" d="M272.71,613.18l-.14-.16c-.27-.37-.5-.75-.77-1.11A407.51,407.51,0,0,1,125.72,526.8a411.43,411.43,0,0,0,26.23,252.14,410.65,410.65,0,0,0,246.69-52.07A407.76,407.76,0,0,1,272.71,613.18Z"/><path class="e" d="M233.51,491.27a203.85,203.85,0,0,1-37.77-118.46c0-.75,0-1.5,0-2.25-.27.36-.55.71-.82,1.07l-.11.18a408.08,408.08,0,0,0-69.13,155A407.51,407.51,0,0,0,271.8,611.91,203.88,203.88,0,0,1,233.51,491.27Z"/><path class="f" d="M259.86,392.14a205.64,205.64,0,0,1,38.74-95.3,203.65,203.65,0,0,0-102.82,73.73c0,.75,0,1.5,0,2.25a203.85,203.85,0,0,0,37.77,118.46A205.6,205.6,0,0,1,259.86,392.14Z"/><path class="g" d="M526,613.75c-.43.14-.86.25-1.29.39a407.68,407.68,0,0,1-126,112.73,410.64,410.64,0,0,0,247.74,52.95,411.44,411.44,0,0,0,26.75-250.87,407.6,407.6,0,0,1-147,84.72Z"/><path class="h" d="M524.67,614.14a203.51,203.51,0,0,1-126.49-.84,203.47,203.47,0,0,1-124.25-.66c-.72-.23-1.41-.5-2.13-.73.26.37.5.75.77,1.11l.14.16A407.76,407.76,0,0,0,398.64,726.87,407.68,407.68,0,0,0,524.67,614.14Z"/><path class="i" d="M312.11,557.59a205.45,205.45,0,0,1-78.61-66.32A203.88,203.88,0,0,0,271.8,611.91c.71.24,1.41.5,2.13.73a203.47,203.47,0,0,0,124.25.66A205.33,205.33,0,0,1,312.11,557.59Z"/><path class="j" d="M312.11,557.59a205,205,0,0,1-52.25-165.45,205.6,205.6,0,0,0-26.35,99.13A205.45,205.45,0,0,0,312.11,557.59Z"/><path class="k" d="M800,309.53a410.75,410.75,0,0,0-230.16-103,408.19,408.19,0,0,1,35.1,166l0,.21c0,.45,0,.9,0,1.35a408,408,0,0,1,68.19,154.78A411.23,411.23,0,0,0,800,309.53Z"/><path class="l" d="M401.66,223.62A203.65,203.65,0,0,1,503.5,298.7a203.62,203.62,0,0,1,100.14,73.62c.44.61.85,1.23,1.29,1.84,0-.45,0-.9,0-1.35l0-.21a408.19,408.19,0,0,0-35.1-166A407.31,407.31,0,0,0,401.66,223.62Z"/><path class="m" d="M401,291.28A205.28,205.28,0,0,1,503.5,298.7a203.65,203.65,0,0,0-101.84-75.08c-.72.23-1.43.43-2.15.66A203.61,203.61,0,0,0,298.6,296.84,205.21,205.21,0,0,1,401,291.28Z"/><path class="n" d="M317.84,327A203.71,203.71,0,0,1,401,291.28a205.21,205.21,0,0,0-102.35,5.55,205.64,205.64,0,0,0-38.74,95.3A203.86,203.86,0,0,1,317.84,327Z"/><path class="o" d="M565,494.29a203.84,203.84,0,0,1-39,118.05c-.44.61-.91,1.19-1.35,1.8.43-.14.86-.25,1.29-.39l.19-.09a407.6,407.6,0,0,0,147-84.72,408,408,0,0,0-68.19-154.78A203.88,203.88,0,0,1,565,494.29Z"/><path class="p" d="M503.5,298.7a205.58,205.58,0,0,1,36.91,95.7A205.67,205.67,0,0,1,565,494.29a203.88,203.88,0,0,0,39.88-120.13c-.44-.61-.85-1.23-1.29-1.84A203.62,203.62,0,0,0,503.5,298.7Z"/><path class="q" d="M401,291.28A204.76,204.76,0,0,1,540.41,394.4a205.58,205.58,0,0,0-36.91-95.7A205.28,205.28,0,0,0,401,291.28Z"/><path class="r" d="M485.5,559a205.39,205.39,0,0,1-87.32,54.32,203.51,203.51,0,0,0,126.49.84c.45-.61.91-1.19,1.35-1.8a203.84,203.84,0,0,0,39-118.05A205.37,205.37,0,0,1,485.5,559Z"/><path class="s" d="M540.41,394.4A205,205,0,0,1,485.5,559,205.37,205.37,0,0,0,565,494.29,205.67,205.67,0,0,0,540.41,394.4Z"/><path class="t" d="M485.5,559a204.62,204.62,0,0,1-173.39-1.4,205.33,205.33,0,0,0,86.07,55.71A205.39,205.39,0,0,0,485.5,559Z"/><path class="u" d="M480.76,326.34A203.69,203.69,0,0,0,401,291.28,204.76,204.76,0,0,0,259.86,392.14a205,205,0,0,0,52.25,165.45A204.62,204.62,0,0,0,485.5,559,205,205,0,0,0,540.41,394.4,203.89,203.89,0,0,0,480.76,326.34Z"/><ellipse class="v" cx="400.52" cy="439.25" rx="108.49" ry="108.57"/></svg>